<?xml version="1.0" encoding="utf-8"?>
<svg version="1.0" width="4451.000000pt" height="4500.000000pt" viewBox="1303.795 1348.251 1847.956 1676.79" preserveAspectRatio="xMidYMid meet" xmlns="http://www.w3.org/2000/svg" xmlns:bx="https://boxy-svg.com">
  <defs>
    <bx:grid x="1303.795" y="1348.251" width="1847.956" height="1676.79"/>
  </defs>
  <g transform="translate(0.000000,4500.000000) scale(0.100000,-0.100000)" fill="#000000" stroke="none">
    <path d="M23055 31406 c-406 -66 -724 -371 -806 -771 -18 -84 -19 -153 -19 -1057 l0 -968 980 0 980 0 0 954 c0 1028 0 1036 -53 1191 -131 384 -482 644 -892 660 -65 3 -143 -1 -190 -9z" style="fill: rgb(0, 124, 255);"/>
    <path d="M21480 28393 c-1533 -114 -2867 -1156 -3356 -2621 -92 -274 -147 -533 -180 -842 -20 -194 -14 -683 10 -854 70 -483 182 -849 380 -1246 538 -1071 1550 -1835 2726 -2059 297 -56 297 -56 1355 -56 l980 0 89 28 c407 127 679 470 703 888 27 466 -276 883 -732 1006 l-100 27 -910 7 c-500 3 -923 9 -940 13 -16 4 -66 14 -110 23 -122 23 -287 79 -420 142 -208 100 -346 194 -504 346 -756 726 -778 1912 -51 2669 242 252 567 440 902 521 233 57 158 55 2331 55 2165 0 2103 -1 2262 53 252 86 448 261 565 502 77 158 95 239 94 430 -1 176 -14 244 -74 388 -63 151 -191 310 -334 411 -80 58 -211 120 -313 149 l-78 22 -2125 1 c-1169 0 -2145 -1 -2170 -3z" style="fill: rgb(0, 124, 255);"/>
    <path d="M22230 24556 l0 -1685 573 -4 c538 -3 577 -5 657 -24 277 -68 502 -209 672 -421 l58 -73 0 1945 0 1946 -980 0 -980 0 0 -1684z" style="fill: rgb(0, 124, 255);"/>
    <path d="M15940 18738 c-74 -28 -151 -106 -174 -175 -18 -55 -23 -130 -11 -185 41 -188 272 -291 461 -204 154 71 224 260 151 409 -74 149 -262 218 -427 155z" style="fill: rgb(0, 124, 255);"/>
    <path d="M19570 18751 c-273 -84 -308 -447 -54 -572 58 -29 78 -34 143 -34 109 0 172 25 242 94 66 66 89 124 89 221 0 124 -79 236 -197 280 -56 21 -172 26 -223 11z" style="fill: rgb(0, 124, 255);"/>
    <path d="M14750 18109 l0 -492 -40 46 c-89 101 -244 192 -400 237 -98 28 -282 37 -387 20 -349 -56 -625 -296 -742 -645 -45 -135 -62 -250 -62 -415 0 -339 102 -611 305 -816 196 -197 455 -289 742 -262 199 18 359 91 497 228 l87 87 0 -143 0 -144 270 0 270 0 0 1395 0 1395 -270 0 -270 0 0 -491z m-405 -663 c193 -51 338 -206 391 -416 21 -85 22 -263 0 -352 -85 -360 -459 -539 -777 -372 -141 74 -249 223 -284 389 -19 90 -19 240 0 330 43 203 193 367 385 421 60 17 223 17 285 0z" style="fill: rgb(0, 124, 255);"/>
    <path d="M24460 17205 l0 -1395 265 0 265 0 0 1395 0 1395 -265 0 -265 0 0 -1395z" style="fill: rgb(0, 124, 255);"/>
    <path d="M20530 18155 l0 -255 -125 0 -125 0 0 -220 0 -220 125 0 124 0 3 -587 c3 -522 6 -595 21 -648 55 -190 160 -306 332 -368 105 -37 192 -47 429 -47 l216 0 0 225 0 225 -168 0 c-154 0 -171 2 -212 23 -26 13 -53 36 -65 57 -19 34 -20 54 -23 578 l-3 542 236 0 235 0 0 220 0 220 -235 0 -235 0 0 255 0 255 -265 0 -265 0 0 -255z" style="fill: rgb(0, 124, 255);"/>
    <path d="M30390 18155 l0 -255 -120 0 -120 0 0 -220 0 -220 119 0 120 0 3 -572 c4 -554 5 -576 26 -653 31 -113 66 -177 133 -250 42 -44 80 -73 132 -98 123 -61 172 -69 460 -74 l257 -5 -2 224 -3 223 -182 5 c-198 5 -209 8 -257 74 -21 27 -21 40 -24 577 l-2 549 232 2 233 3 0 215 0 215 -232 3 -233 2 0 255 0 255 -270 0 -270 0 0 -255z" style="fill: rgb(0, 124, 255);"/>
    <path d="M17486 17915 c-254 -53 -454 -188 -593 -402 -173 -265 -226 -643 -139 -987 107 -420 425 -708 822 -745 282 -26 545 70 718 260 l56 62 0 -204 c0 -141 -5 -225 -15 -274 -39 -183 -161 -314 -336 -360 -72 -20 -258 -19 -334 0 -146 37 -260 123 -312 235 l-28 60 -263 0 -262 0 4 -22 c3 -13 10 -47 15 -76 17 -81 67 -203 112 -268 142 -205 353 -331 655 -390 123 -25 396 -25 515 -1 384 77 641 308 743 667 44 157 46 207 46 1348 l0 1082 -267 -2 -268 -3 -3 -138 -3 -138 -62 64 c-102 105 -232 179 -392 223 -83 23 -318 28 -409 9z m465 -471 c174 -52 304 -178 365 -354 35 -99 44 -287 20 -400 -47 -224 -208 -390 -421 -435 -88 -18 -132 -18 -220 0 -188 40 -333 172 -403 367 -34 96 -43 304 -18 412 48 202 208 372 392 415 66 15 225 13 285 -5z" style="fill: rgb(0, 124, 255);"/>
    <path d="M22567 17920 c-126 -23 -273 -82 -376 -152 -66 -45 -180 -162 -230 -237 -187 -277 -241 -678 -141 -1041 11 -41 45 -124 75 -185 178 -364 523 -560 920 -524 212 20 406 113 539 260 l56 62 0 -146 0 -147 270 0 270 0 -2 1043 -3 1042 -267 3 -268 2 0 -144 0 -145 -57 61 c-105 110 -219 179 -370 224 -72 21 -113 27 -228 29 -77 2 -162 0 -188 -5z m438 -475 c259 -68 419 -321 402 -635 -7 -120 -24 -187 -73 -280 -66 -127 -163 -211 -293 -256 -330 -113 -655 94 -717 456 -27 160 -10 296 57 436 62 132 164 222 309 271 80 28 225 31 315 8z" style="fill: rgb(0, 124, 255);"/>
    <path d="M26207 17915 c-444 -78 -744 -385 -822 -839 -19 -113 -19 -329 0 -439 86 -493 433 -813 925 -856 454 -39 839 163 1020 534 27 55 52 112 56 128 l6 27 -283 0 -284 0 -45 -67 c-84 -125 -203 -183 -374 -183 -198 0 -355 90 -435 248 -32 63 -61 158 -61 199 l0 23 759 0 759 0 6 34 c15 78 7 314 -14 415 -80 394 -328 656 -719 758 -120 31 -368 41 -494 18z m333 -436 c180 -41 332 -203 347 -368 l6 -61 -492 0 c-270 0 -491 4 -491 8 0 4 7 34 15 65 45 173 164 300 330 353 49 15 223 17 285 3z" style="fill: rgb(0, 124, 255);"/>
    <path d="M28833 17916 c-178 -34 -338 -117 -436 -225 l-36 -40 -3 122 -3 122 -265 0 -265 0 -3 -1042 -2 -1043 270 0 270 0 0 630 c0 420 4 647 11 682 40 192 180 322 375 348 211 28 399 -59 478 -222 56 -116 56 -119 56 -805 l0 -633 271 0 271 0 -5 688 c-4 646 -5 692 -24 777 -75 333 -275 548 -578 626 -104 26 -285 33 -382 15z" style="fill: rgb(0, 124, 255);"/>
    <path d="M15800 16855 l0 -1045 265 0 265 0 0 1045 0 1045 -265 0 -265 0 0 -1045z" style="fill: rgb(0, 124, 255);"/>
    <path d="M19400 16855 l0 -1045 265 0 265 0 0 1045 0 1045 -265 0 -265 0 0 -1045z" style="fill: rgb(0, 124, 255);"/>
  </g>
</svg>