<svg width="536" height="681" viewBox="0 0 536 681" fill="none" xmlns="http://www.w3.org/2000/svg">
<rect width="154" height="52" fill="#C4C4C4"/>
<path d="M32.7095 26.648C32.7095 29.784 31.9895 31.96 30.5495 33.176C29.1095 34.392 27.3335 35 25.2215 35H21.4295V18.464H24.9575C27.2775 18.464 29.1495 19.048 30.5735 20.216C31.9975 21.384 32.7095 23.528 32.7095 26.648ZM30.4775 26.648C30.4775 24.856 30.2295 23.488 29.7335 22.544C29.2535 21.584 28.6535 20.952 27.9335 20.648C27.2135 20.328 26.3895 20.168 25.4615 20.168H23.5175V33.32H25.4855C26.9095 33.32 28.0935 32.832 29.0375 31.856C29.9975 30.864 30.4775 29.128 30.4775 26.648ZM41.0521 22.088C42.7961 22.088 44.1321 22.68 45.0601 23.864C46.0041 25.032 46.4761 26.632 46.4761 28.664C46.4761 30.648 45.9961 32.248 45.0361 33.464C44.0921 34.664 42.7561 35.264 41.0281 35.264C39.2841 35.264 37.9401 34.68 36.9961 33.512C36.0521 32.328 35.5801 30.72 35.5801 28.688C35.5801 26.688 36.0521 25.088 36.9961 23.888C37.9561 22.688 39.3081 22.088 41.0521 22.088ZM41.0521 23.744C39.9481 23.744 39.1241 24.152 38.5801 24.968C38.0361 25.784 37.7641 27.024 37.7641 28.688C37.7641 30.352 38.0281 31.592 38.5561 32.408C39.1001 33.208 39.9241 33.608 41.0281 33.608C42.1321 33.608 42.9481 33.208 43.4761 32.408C44.0201 31.592 44.2921 30.344 44.2921 28.664C44.2921 27 44.0201 25.768 43.4761 24.968C42.9481 24.152 42.1401 23.744 41.0521 23.744ZM56.3548 33.536C57.4588 33.536 58.5548 33.168 59.6428 32.432L60.6028 33.752C60.0748 34.216 59.4188 34.584 58.6348 34.856C57.8508 35.128 57.0908 35.264 56.3548 35.264C54.4828 35.264 53.0188 34.68 51.9628 33.512C50.9228 32.328 50.4028 30.736 50.4028 28.736C50.4028 27.472 50.6348 26.336 51.0988 25.328C51.5788 24.32 52.2668 23.528 53.1628 22.952C54.0588 22.376 55.1228 22.088 56.3548 22.088C57.9868 22.088 59.3948 22.584 60.5788 23.576L59.5948 24.896C58.4908 24.16 57.4028 23.792 56.3308 23.792C55.1948 23.792 54.2828 24.216 53.5948 25.064C52.9228 25.896 52.5868 27.12 52.5868 28.736C52.5868 30.352 52.9228 31.56 53.5948 32.36C54.2828 33.144 55.2028 33.536 56.3548 33.536ZM67.0254 31.328C67.0254 32.144 67.1934 32.744 67.5294 33.128C67.8814 33.496 68.4254 33.68 69.1614 33.68C69.8334 33.68 70.4814 33.488 71.1054 33.104C71.7294 32.72 72.2254 32.24 72.5934 31.664V22.352H74.6094V35H72.8814L72.7134 33.296C72.2174 33.92 71.6014 34.408 70.8654 34.76C70.1454 35.096 69.4094 35.264 68.6574 35.264C67.4574 35.264 66.5454 34.944 65.9214 34.304C65.3134 33.664 65.0094 32.744 65.0094 31.544V22.352H67.0254V31.328ZM87.728 22.088C88.448 22.088 89.032 22.344 89.48 22.856C89.944 23.352 90.176 24.264 90.176 25.592V35H88.328V25.928C88.328 25.048 88.272 24.456 88.16 24.152C88.048 23.832 87.776 23.672 87.344 23.672C86.528 23.672 85.792 24.176 85.136 25.184V35H83.264V25.928C83.264 25.048 83.208 24.456 83.096 24.152C82.984 23.832 82.712 23.672 82.28 23.672C81.464 23.672 80.728 24.176 80.072 25.184V35H78.224V22.352H79.784L79.928 23.84C80.312 23.28 80.712 22.848 81.128 22.544C81.56 22.24 82.072 22.088 82.664 22.088C83.848 22.088 84.608 22.648 84.944 23.768C85.328 23.224 85.736 22.808 86.168 22.52C86.6 22.232 87.12 22.088 87.728 22.088ZM95.3986 29.384C95.4466 30.776 95.8066 31.824 96.4786 32.528C97.1666 33.232 98.0306 33.584 99.0706 33.584C99.6946 33.584 100.263 33.496 100.775 33.32C101.303 33.128 101.863 32.84 102.455 32.456L103.391 33.8C102.799 34.264 102.119 34.624 101.351 34.88C100.599 35.136 99.8386 35.264 99.0706 35.264C97.2466 35.264 95.8226 34.672 94.7986 33.488C93.7906 32.288 93.2866 30.688 93.2866 28.688C93.2866 27.424 93.5106 26.296 93.9586 25.304C94.4066 24.296 95.0466 23.512 95.8786 22.952C96.7106 22.376 97.6786 22.088 98.7826 22.088C100.383 22.088 101.639 22.648 102.551 23.768C103.479 24.872 103.943 26.384 103.943 28.304C103.943 28.672 103.927 29.032 103.895 29.384H95.3986ZM98.8066 23.744C97.8306 23.744 97.0386 24.096 96.4306 24.8C95.8226 25.488 95.4786 26.504 95.3986 27.848H101.975C101.959 26.52 101.671 25.504 101.111 24.8C100.551 24.096 99.7826 23.744 98.8066 23.744ZM108.181 22.352H109.909L110.077 24.128C110.573 23.488 111.197 22.992 111.949 22.64C112.717 22.272 113.485 22.088 114.253 22.088C116.621 22.088 117.805 23.336 117.805 25.832V35H115.789V27.32C115.789 26.376 115.733 25.656 115.621 25.16C115.525 24.664 115.325 24.296 115.021 24.056C114.717 23.816 114.253 23.696 113.629 23.696C112.941 23.696 112.293 23.904 111.685 24.32C111.077 24.736 110.581 25.232 110.197 25.808V35H108.181V22.352ZM132.628 34.352C132.196 34.64 131.668 34.864 131.044 35.024C130.436 35.184 129.828 35.264 129.22 35.264C127.892 35.264 126.852 34.92 126.1 34.232C125.348 33.528 124.972 32.608 124.972 31.472V23.936H122.068V22.352H124.972V19.496L126.988 19.256V22.352H131.38L131.116 23.936H126.988V31.448C126.988 32.168 127.18 32.704 127.564 33.056C127.948 33.408 128.564 33.584 129.412 33.584C130.276 33.584 131.084 33.384 131.836 32.984L132.628 34.352Z" fill="black"/>
<rect x="72" y="78" width="82" height="38" fill="#C4C4C4"/>
<path d="M97.2565 95.736C97.5872 95.3093 97.9925 94.9787 98.4725 94.744C98.9525 94.5093 99.4485 94.392 99.9605 94.392C101.539 94.392 102.329 95.224 102.329 96.888V103H100.985V96.904C100.985 96.4027 100.867 96.04 100.633 95.816C100.398 95.5813 100.025 95.464 99.5125 95.464C99.0752 95.464 98.6538 95.6027 98.2485 95.88C97.8432 96.1573 97.5125 96.4827 97.2565 96.856V103H95.9125V91.192L97.2565 91.048V95.736ZM112.21 102.568C111.922 102.76 111.57 102.909 111.154 103.016C110.749 103.123 110.344 103.176 109.938 103.176C109.053 103.176 108.36 102.947 107.858 102.488C107.357 102.019 107.106 101.405 107.106 100.648V95.624H105.17V94.568H107.106V92.664L108.45 92.504V94.568H111.378L111.202 95.624H108.45V100.632C108.45 101.112 108.578 101.469 108.834 101.704C109.09 101.939 109.501 102.056 110.066 102.056C110.642 102.056 111.181 101.923 111.682 101.656L112.21 102.568ZM120.652 94.392C121.132 94.392 121.521 94.5627 121.82 94.904C122.129 95.2347 122.284 95.8427 122.284 96.728V103H121.052V96.952C121.052 96.3653 121.015 95.9707 120.94 95.768C120.865 95.5547 120.684 95.448 120.396 95.448C119.852 95.448 119.361 95.784 118.924 96.456V103H117.676V96.952C117.676 96.3653 117.639 95.9707 117.564 95.768C117.489 95.5547 117.308 95.448 117.02 95.448C116.476 95.448 115.985 95.784 115.548 96.456V103H114.316V94.568H115.356L115.452 95.56C115.708 95.1867 115.975 94.8987 116.252 94.696C116.54 94.4933 116.881 94.392 117.276 94.392C118.065 94.392 118.572 94.7653 118.796 95.512C119.052 95.1493 119.324 94.872 119.612 94.68C119.9 94.488 120.247 94.392 120.652 94.392ZM127.99 100.92C127.99 101.677 128.454 102.056 129.382 102.056C129.819 102.056 130.288 101.96 130.79 101.768L131.142 102.744C130.608 103.032 129.942 103.176 129.142 103.176C128.384 103.176 127.776 102.968 127.318 102.552C126.87 102.136 126.646 101.571 126.646 100.856V92.248H124.054V91.176H127.99V100.92Z" fill="black"/>
<rect x="140" y="142" width="82" height="38" fill="#C4C4C4"/>
<path d="M165.257 159.736C165.587 159.309 165.993 158.979 166.473 158.744C166.953 158.509 167.449 158.392 167.961 158.392C169.539 158.392 170.329 159.224 170.329 160.888V167H168.985V160.904C168.985 160.403 168.867 160.04 168.633 159.816C168.398 159.581 168.025 159.464 167.513 159.464C167.075 159.464 166.654 159.603 166.249 159.88C165.843 160.157 165.513 160.483 165.257 160.856V167H163.913V155.192L165.257 155.048V159.736ZM174.578 163.256C174.61 164.184 174.85 164.883 175.298 165.352C175.757 165.821 176.333 166.056 177.026 166.056C177.442 166.056 177.821 165.997 178.162 165.88C178.514 165.752 178.888 165.56 179.282 165.304L179.906 166.2C179.512 166.509 179.058 166.749 178.546 166.92C178.045 167.091 177.538 167.176 177.026 167.176C175.81 167.176 174.861 166.781 174.178 165.992C173.506 165.192 173.17 164.125 173.17 162.792C173.17 161.949 173.32 161.197 173.618 160.536C173.917 159.864 174.344 159.341 174.898 158.968C175.453 158.584 176.098 158.392 176.834 158.392C177.901 158.392 178.738 158.765 179.346 159.512C179.965 160.248 180.274 161.256 180.274 162.536C180.274 162.781 180.264 163.021 180.242 163.256H174.578ZM176.85 159.496C176.2 159.496 175.672 159.731 175.266 160.2C174.861 160.659 174.632 161.336 174.578 162.232H178.962C178.952 161.347 178.76 160.669 178.386 160.2C178.013 159.731 177.501 159.496 176.85 159.496ZM189.148 165.16C189.148 165.491 189.201 165.736 189.308 165.896C189.415 166.045 189.591 166.157 189.836 166.232L189.5 167.192C188.679 167.085 188.167 166.685 187.964 165.992C187.665 166.376 187.287 166.669 186.828 166.872C186.38 167.075 185.879 167.176 185.324 167.176C184.481 167.176 183.815 166.941 183.324 166.472C182.844 166.003 182.604 165.373 182.604 164.584C182.604 163.72 182.94 163.053 183.612 162.584C184.295 162.115 185.271 161.88 186.54 161.88H187.788V161.192C187.788 160.595 187.617 160.168 187.276 159.912C186.935 159.645 186.439 159.512 185.788 159.512C185.148 159.512 184.417 159.656 183.596 159.944L183.228 158.92C184.22 158.568 185.143 158.392 185.996 158.392C187.02 158.392 187.799 158.632 188.332 159.112C188.876 159.592 189.148 160.259 189.148 161.112V165.16ZM185.66 166.168C186.076 166.168 186.471 166.061 186.844 165.848C187.228 165.635 187.543 165.341 187.788 164.968V162.808H186.572C185.676 162.808 185.031 162.957 184.636 163.256C184.241 163.555 184.044 163.992 184.044 164.568C184.044 165.635 184.583 166.168 185.66 166.168ZM199.094 155.176V167H197.91L197.782 165.896C197.472 166.323 197.115 166.643 196.71 166.856C196.304 167.069 195.867 167.176 195.398 167.176C194.331 167.176 193.526 166.787 192.982 166.008C192.448 165.229 192.182 164.157 192.182 162.792C192.182 161.949 192.315 161.197 192.582 160.536C192.848 159.864 193.227 159.341 193.718 158.968C194.219 158.584 194.806 158.392 195.478 158.392C196.406 158.392 197.163 158.728 197.75 159.4V155.016L199.094 155.176ZM195.83 159.48C195.126 159.48 194.582 159.757 194.198 160.312C193.824 160.867 193.638 161.693 193.638 162.792C193.638 163.88 193.808 164.707 194.15 165.272C194.502 165.827 195.008 166.104 195.67 166.104C196.47 166.104 197.163 165.656 197.75 164.76V160.568C197.515 160.216 197.232 159.949 196.902 159.768C196.571 159.576 196.214 159.48 195.83 159.48Z" fill="black"/>
<rect x="140" y="319" width="82" height="38" fill="#C4C4C4"/>
<path d="M165.257 335.672C165.907 334.819 166.713 334.392 167.673 334.392C168.75 334.392 169.545 334.776 170.057 335.544C170.569 336.312 170.825 337.389 170.825 338.776C170.825 340.099 170.531 341.165 169.945 341.976C169.358 342.776 168.537 343.176 167.481 343.176C166.51 343.176 165.747 342.824 165.193 342.12L165.097 343H163.913V331.176L165.257 331.016V335.672ZM167.177 342.088C167.881 342.088 168.419 341.811 168.793 341.256C169.177 340.701 169.369 339.875 169.369 338.776C169.369 337.688 169.198 336.867 168.857 336.312C168.526 335.757 168.03 335.48 167.369 335.48C166.942 335.48 166.547 335.608 166.185 335.864C165.833 336.12 165.523 336.44 165.257 336.824V341C165.481 341.341 165.758 341.608 166.089 341.8C166.419 341.992 166.782 342.088 167.177 342.088ZM176.722 334.392C177.885 334.392 178.776 334.787 179.394 335.576C180.024 336.355 180.338 337.421 180.338 338.776C180.338 340.099 180.018 341.165 179.378 341.976C178.749 342.776 177.858 343.176 176.706 343.176C175.544 343.176 174.648 342.787 174.018 342.008C173.389 341.219 173.074 340.147 173.074 338.792C173.074 337.459 173.389 336.392 174.018 335.592C174.658 334.792 175.56 334.392 176.722 334.392ZM176.722 335.496C175.986 335.496 175.437 335.768 175.074 336.312C174.712 336.856 174.53 337.683 174.53 338.792C174.53 339.901 174.706 340.728 175.058 341.272C175.421 341.805 175.97 342.072 176.706 342.072C177.442 342.072 177.986 341.805 178.338 341.272C178.701 340.728 178.882 339.896 178.882 338.776C178.882 337.667 178.701 336.845 178.338 336.312C177.986 335.768 177.448 335.496 176.722 335.496ZM189.5 331.176V343H188.316L188.188 341.896C187.879 342.323 187.521 342.643 187.116 342.856C186.711 343.069 186.273 343.176 185.804 343.176C184.737 343.176 183.932 342.787 183.388 342.008C182.855 341.229 182.588 340.157 182.588 338.792C182.588 337.949 182.721 337.197 182.988 336.536C183.255 335.864 183.633 335.341 184.124 334.968C184.625 334.584 185.212 334.392 185.884 334.392C186.812 334.392 187.569 334.728 188.156 335.4V331.016L189.5 331.176ZM186.236 335.48C185.532 335.48 184.988 335.757 184.604 336.312C184.231 336.867 184.044 337.693 184.044 338.792C184.044 339.88 184.215 340.707 184.556 341.272C184.908 341.827 185.415 342.104 186.076 342.104C186.876 342.104 187.569 341.656 188.156 340.76V336.568C187.921 336.216 187.639 335.949 187.308 335.768C186.977 335.576 186.62 335.48 186.236 335.48ZM196.758 343.048C196.427 344.019 195.974 344.792 195.398 345.368C194.822 345.944 194.016 346.285 192.982 346.392L192.79 345.32C193.355 345.224 193.803 345.075 194.134 344.872C194.475 344.68 194.742 344.435 194.934 344.136C195.126 343.848 195.302 343.469 195.462 343H195.014L192.086 334.568H193.51L195.926 341.976L198.31 334.568H199.702L196.758 343.048Z" fill="black"/>
<rect x="203" y="386" width="46" height="38" fill="#C4C4C4"/>
<path d="M228.579 401.392C230.616 401.392 231.635 402.853 231.635 405.776C231.635 407.109 231.358 408.176 230.803 408.976C230.248 409.776 229.443 410.176 228.387 410.176C227.47 410.176 226.723 409.856 226.147 409.216V413.232L224.803 413.392V401.568H225.955L226.067 402.752C226.376 402.315 226.744 401.979 227.171 401.744C227.608 401.509 228.078 401.392 228.579 401.392ZM228.259 402.48C227.832 402.48 227.438 402.608 227.075 402.864C226.723 403.12 226.414 403.44 226.147 403.824V408C226.371 408.331 226.648 408.592 226.979 408.784C227.32 408.965 227.688 409.056 228.083 409.056C228.787 409.056 229.31 408.789 229.651 408.256C230.003 407.712 230.179 406.885 230.179 405.776C230.179 404.667 230.024 403.84 229.715 403.296C229.406 402.752 228.92 402.48 228.259 402.48Z" fill="black"/>
<rect x="203" y="505" width="46" height="38" fill="#C4C4C4"/>
<path d="M230.851 527.16C230.851 527.491 230.904 527.736 231.011 527.896C231.118 528.045 231.294 528.157 231.539 528.232L231.203 529.192C230.382 529.085 229.87 528.685 229.667 527.992C229.368 528.376 228.99 528.669 228.531 528.872C228.083 529.075 227.582 529.176 227.027 529.176C226.184 529.176 225.518 528.941 225.027 528.472C224.547 528.003 224.307 527.373 224.307 526.584C224.307 525.72 224.643 525.053 225.315 524.584C225.998 524.115 226.974 523.88 228.243 523.88H229.491V523.192C229.491 522.595 229.32 522.168 228.979 521.912C228.638 521.645 228.142 521.512 227.491 521.512C226.851 521.512 226.12 521.656 225.299 521.944L224.931 520.92C225.923 520.568 226.846 520.392 227.699 520.392C228.723 520.392 229.502 520.632 230.035 521.112C230.579 521.592 230.851 522.259 230.851 523.112V527.16ZM227.363 528.168C227.779 528.168 228.174 528.061 228.547 527.848C228.931 527.635 229.246 527.341 229.491 526.968V524.808H228.275C227.379 524.808 226.734 524.957 226.339 525.256C225.944 525.555 225.747 525.992 225.747 526.568C225.747 527.635 226.286 528.168 227.363 528.168Z" fill="black"/>
<rect x="203" y="200" width="82" height="38" fill="#C4C4C4"/>
<path d="M228.32 224.568C228.032 224.76 227.68 224.909 227.264 225.016C226.858 225.123 226.453 225.176 226.048 225.176C225.162 225.176 224.469 224.947 223.968 224.488C223.466 224.019 223.216 223.405 223.216 222.648V217.624H221.28V216.568H223.216V214.664L224.56 214.504V216.568H227.488L227.312 217.624H224.56V222.632C224.56 223.112 224.688 223.469 224.944 223.704C225.2 223.939 225.61 224.056 226.176 224.056C226.752 224.056 227.29 223.923 227.792 223.656L228.32 224.568ZM234.409 212.632C234.708 212.632 234.948 212.723 235.129 212.904C235.311 213.075 235.401 213.299 235.401 213.576C235.401 213.853 235.311 214.083 235.129 214.264C234.948 214.435 234.708 214.52 234.409 214.52C234.121 214.52 233.887 214.435 233.705 214.264C233.535 214.083 233.449 213.853 233.449 213.576C233.449 213.299 233.535 213.075 233.705 212.904C233.887 212.723 234.121 212.632 234.409 212.632ZM235.481 223.928H237.849V225H231.545V223.928H234.137V217.64H231.625V216.568H235.481V223.928ZM247.507 224.568C247.219 224.76 246.867 224.909 246.451 225.016C246.046 225.123 245.64 225.176 245.235 225.176C244.35 225.176 243.656 224.947 243.155 224.488C242.654 224.019 242.403 223.405 242.403 222.648V217.624H240.467V216.568H242.403V214.664L243.747 214.504V216.568H246.675L246.499 217.624H243.747V222.632C243.747 223.112 243.875 223.469 244.131 223.704C244.387 223.939 244.798 224.056 245.363 224.056C245.939 224.056 246.478 223.923 246.979 223.656L247.507 224.568ZM253.693 222.92C253.693 223.677 254.157 224.056 255.085 224.056C255.522 224.056 255.992 223.96 256.493 223.768L256.845 224.744C256.312 225.032 255.645 225.176 254.845 225.176C254.088 225.176 253.48 224.968 253.021 224.552C252.573 224.136 252.349 223.571 252.349 222.856V214.248H249.757V213.176H253.693V222.92ZM261.063 221.256C261.095 222.184 261.335 222.883 261.783 223.352C262.241 223.821 262.817 224.056 263.511 224.056C263.927 224.056 264.305 223.997 264.647 223.88C264.999 223.752 265.372 223.56 265.767 223.304L266.391 224.2C265.996 224.509 265.543 224.749 265.031 224.92C264.529 225.091 264.023 225.176 263.511 225.176C262.295 225.176 261.345 224.781 260.663 223.992C259.991 223.192 259.655 222.125 259.655 220.792C259.655 219.949 259.804 219.197 260.103 218.536C260.401 217.864 260.828 217.341 261.383 216.968C261.937 216.584 262.583 216.392 263.319 216.392C264.385 216.392 265.223 216.765 265.831 217.512C266.449 218.248 266.759 219.256 266.759 220.536C266.759 220.781 266.748 221.021 266.727 221.256H261.063ZM263.335 217.496C262.684 217.496 262.156 217.731 261.751 218.2C261.345 218.659 261.116 219.336 261.063 220.232H265.447C265.436 219.347 265.244 218.669 264.871 218.2C264.497 217.731 263.985 217.496 263.335 217.496Z" fill="black"/>
<rect x="268" y="264" width="179" height="38" fill="#C4C4C4"/>
<path d="M285.757 288.568C285.469 288.76 285.117 288.909 284.701 289.016C284.296 289.123 283.89 289.176 283.485 289.176C282.6 289.176 281.906 288.947 281.405 288.488C280.904 288.019 280.653 287.405 280.653 286.648V281.624H278.717V280.568H280.653V278.664L281.997 278.504V280.568H284.925L284.749 281.624H281.997V286.632C281.997 287.112 282.125 287.469 282.381 287.704C282.637 287.939 283.048 288.056 283.613 288.056C284.189 288.056 284.728 287.923 285.229 287.656L285.757 288.568ZM289.719 285.256C289.751 286.184 289.991 286.883 290.439 287.352C290.898 287.821 291.474 288.056 292.167 288.056C292.583 288.056 292.962 287.997 293.303 287.88C293.655 287.752 294.028 287.56 294.423 287.304L295.047 288.2C294.652 288.509 294.199 288.749 293.687 288.92C293.186 289.091 292.679 289.176 292.167 289.176C290.951 289.176 290.002 288.781 289.319 287.992C288.647 287.192 288.311 286.125 288.311 284.792C288.311 283.949 288.46 283.197 288.759 282.536C289.058 281.864 289.484 281.341 290.039 280.968C290.594 280.584 291.239 280.392 291.975 280.392C293.042 280.392 293.879 280.765 294.487 281.512C295.106 282.248 295.415 283.256 295.415 284.536C295.415 284.781 295.404 285.021 295.383 285.256H289.719ZM291.991 281.496C291.34 281.496 290.812 281.731 290.407 282.2C290.002 282.659 289.772 283.336 289.719 284.232H294.103C294.092 283.347 293.9 282.669 293.527 282.2C293.154 281.731 292.642 281.496 291.991 281.496ZM297.537 289L300.641 284.552L297.905 280.568H299.505L301.457 283.704L303.425 280.568H304.977L302.241 284.488L305.345 289H303.713L301.393 285.384L299.073 289H297.537ZM314.538 288.568C314.25 288.76 313.898 288.909 313.482 289.016C313.077 289.123 312.672 289.176 312.266 289.176C311.381 289.176 310.688 288.947 310.186 288.488C309.685 288.019 309.434 287.405 309.434 286.648V281.624H307.498V280.568H309.434V278.664L310.778 278.504V280.568H313.706L313.53 281.624H310.778V286.632C310.778 287.112 310.906 287.469 311.162 287.704C311.418 287.939 311.829 288.056 312.394 288.056C312.97 288.056 313.509 287.923 314.01 287.656L314.538 288.568ZM319.332 282.104C319.332 281.752 319.455 281.453 319.7 281.208C319.945 280.952 320.249 280.824 320.612 280.824C320.985 280.824 321.295 280.952 321.54 281.208C321.785 281.453 321.908 281.752 321.908 282.104C321.908 282.467 321.785 282.776 321.54 283.032C321.295 283.288 320.985 283.416 320.612 283.416C320.249 283.416 319.945 283.288 319.7 283.032C319.455 282.776 319.332 282.467 319.332 282.104ZM319.332 287.88C319.332 287.528 319.455 287.224 319.7 286.968C319.945 286.712 320.249 286.584 320.612 286.584C320.985 286.584 321.295 286.712 321.54 286.968C321.785 287.213 321.908 287.517 321.908 287.88C321.908 288.253 321.785 288.563 321.54 288.808C321.295 289.053 320.985 289.176 320.612 289.176C320.249 289.176 319.945 289.053 319.7 288.808C319.455 288.563 319.332 288.253 319.332 287.88ZM343.656 285.864C343.656 286.973 343.256 287.773 342.456 288.264C341.666 288.755 340.69 289 339.528 289H336.552V277.976H339.272C340.392 277.976 341.32 278.195 342.056 278.632C342.802 279.059 343.176 279.768 343.176 280.76C343.176 281.421 342.978 281.955 342.584 282.36C342.189 282.755 341.698 283.021 341.112 283.16C342.808 283.448 343.656 284.349 343.656 285.864ZM341.752 280.84C341.752 280.232 341.565 279.795 341.192 279.528C340.818 279.251 340.285 279.112 339.592 279.112H337.944V282.664H339.72C341.074 282.664 341.752 282.056 341.752 280.84ZM342.184 285.912C342.184 285.133 341.97 284.589 341.544 284.28C341.128 283.971 340.552 283.816 339.816 283.816H337.944V287.848H339.768C340.44 287.848 341.01 287.709 341.48 287.432C341.949 287.155 342.184 286.648 342.184 285.912ZM347.281 285.256C347.313 286.184 347.553 286.883 348.001 287.352C348.46 287.821 349.036 288.056 349.729 288.056C350.145 288.056 350.524 287.997 350.865 287.88C351.217 287.752 351.591 287.56 351.985 287.304L352.609 288.2C352.215 288.509 351.761 288.749 351.249 288.92C350.748 289.091 350.241 289.176 349.729 289.176C348.513 289.176 347.564 288.781 346.881 287.992C346.209 287.192 345.873 286.125 345.873 284.792C345.873 283.949 346.023 283.197 346.321 282.536C346.62 281.864 347.047 281.341 347.601 280.968C348.156 280.584 348.801 280.392 349.537 280.392C350.604 280.392 351.441 280.765 352.049 281.512C352.668 282.248 352.977 283.256 352.977 284.536C352.977 284.781 352.967 285.021 352.945 285.256H347.281ZM349.553 281.496C348.903 281.496 348.375 281.731 347.969 282.2C347.564 282.659 347.335 283.336 347.281 284.232H351.665C351.655 283.347 351.463 282.669 351.089 282.2C350.716 281.731 350.204 281.496 349.553 281.496ZM359.099 286.92C359.099 287.677 359.563 288.056 360.491 288.056C360.928 288.056 361.398 287.96 361.899 287.768L362.251 288.744C361.718 289.032 361.051 289.176 360.251 289.176C359.494 289.176 358.886 288.968 358.427 288.552C357.979 288.136 357.755 287.571 357.755 286.856V278.248H355.163V277.176H359.099V286.92ZM371.445 287.16C371.445 287.491 371.498 287.736 371.605 287.896C371.712 288.045 371.888 288.157 372.133 288.232L371.797 289.192C370.976 289.085 370.464 288.685 370.261 287.992C369.962 288.376 369.584 288.669 369.125 288.872C368.677 289.075 368.176 289.176 367.621 289.176C366.778 289.176 366.112 288.941 365.621 288.472C365.141 288.003 364.901 287.373 364.901 286.584C364.901 285.72 365.237 285.053 365.909 284.584C366.592 284.115 367.568 283.88 368.837 283.88H370.085V283.192C370.085 282.595 369.914 282.168 369.573 281.912C369.232 281.645 368.736 281.512 368.085 281.512C367.445 281.512 366.714 281.656 365.893 281.944L365.525 280.92C366.517 280.568 367.44 280.392 368.293 280.392C369.317 280.392 370.096 280.632 370.629 281.112C371.173 281.592 371.445 282.259 371.445 283.112V287.16ZM367.957 288.168C368.373 288.168 368.768 288.061 369.141 287.848C369.525 287.635 369.84 287.341 370.085 286.968V284.808H368.869C367.973 284.808 367.328 284.957 366.933 285.256C366.538 285.555 366.341 285.992 366.341 286.568C366.341 287.635 366.88 288.168 367.957 288.168ZM379.263 276.632C379.551 276.632 379.785 276.723 379.967 276.904C380.148 277.075 380.239 277.299 380.239 277.576C380.239 277.853 380.148 278.083 379.967 278.264C379.785 278.435 379.551 278.52 379.263 278.52C378.975 278.52 378.74 278.435 378.559 278.264C378.377 278.083 378.287 277.853 378.287 277.576C378.287 277.299 378.377 277.075 378.559 276.904C378.74 276.723 378.975 276.632 379.263 276.632ZM380.511 287.656C380.511 289.011 380.057 290.061 379.151 290.808C378.255 291.565 376.921 292.093 375.151 292.392L374.927 291.352C376.281 291.128 377.327 290.733 378.063 290.168C378.799 289.613 379.167 288.803 379.167 287.736V281.64H375.663V280.568H380.511V287.656ZM390.632 287.16C390.632 287.491 390.686 287.736 390.792 287.896C390.899 288.045 391.075 288.157 391.32 288.232L390.984 289.192C390.163 289.085 389.651 288.685 389.448 287.992C389.15 288.376 388.771 288.669 388.312 288.872C387.864 289.075 387.363 289.176 386.808 289.176C385.966 289.176 385.299 288.941 384.808 288.472C384.328 288.003 384.088 287.373 384.088 286.584C384.088 285.72 384.424 285.053 385.096 284.584C385.779 284.115 386.755 283.88 388.024 283.88H389.272V283.192C389.272 282.595 389.102 282.168 388.76 281.912C388.419 281.645 387.923 281.512 387.272 281.512C386.632 281.512 385.902 281.656 385.08 281.944L384.712 280.92C385.704 280.568 386.627 280.392 387.48 280.392C388.504 280.392 389.283 280.632 389.816 281.112C390.36 281.592 390.632 282.259 390.632 283.112V287.16ZM387.144 288.168C387.56 288.168 387.955 288.061 388.328 287.848C388.712 287.635 389.027 287.341 389.272 286.968V284.808H388.056C387.16 284.808 386.515 284.957 386.12 285.256C385.726 285.555 385.528 285.992 385.528 286.568C385.528 287.635 386.067 288.168 387.144 288.168ZM399.874 280.392C400.215 280.392 400.61 280.451 401.058 280.568L400.866 283.432H399.778V281.624H399.698C398.397 281.624 397.474 282.552 396.93 284.408V287.96H398.642V289H394.258V287.96H395.586V281.608H394.258V280.568H396.594L396.85 282.568C397.191 281.843 397.597 281.299 398.066 280.936C398.546 280.573 399.149 280.392 399.874 280.392ZM420.614 283.432C420.614 285.523 420.134 286.973 419.174 287.784C418.214 288.595 417.03 289 415.622 289H413.094V277.976H415.446C416.992 277.976 418.24 278.365 419.19 279.144C420.139 279.923 420.614 281.352 420.614 283.432ZM419.126 283.432C419.126 282.237 418.96 281.325 418.63 280.696C418.31 280.056 417.91 279.635 417.43 279.432C416.95 279.219 416.4 279.112 415.782 279.112H414.486V287.88H415.798C416.747 287.88 417.536 287.555 418.166 286.904C418.806 286.243 419.126 285.085 419.126 283.432ZM430.207 283.496C430.207 285.213 429.855 286.589 429.151 287.624C428.458 288.659 427.461 289.176 426.159 289.176C424.847 289.176 423.845 288.669 423.151 287.656C422.458 286.643 422.111 285.261 422.111 283.512C422.111 282.392 422.266 281.4 422.575 280.536C422.885 279.672 423.343 279 423.951 278.52C424.559 278.04 425.295 277.8 426.159 277.8C427.461 277.8 428.458 278.317 429.151 279.352C429.855 280.376 430.207 281.757 430.207 283.496ZM428.767 283.496C428.767 281.992 428.559 280.861 428.143 280.104C427.727 279.347 427.066 278.968 426.159 278.968C425.253 278.968 424.591 279.352 424.175 280.12C423.759 280.877 423.551 282.008 423.551 283.512C423.551 285.005 423.759 286.131 424.175 286.888C424.602 287.635 425.263 288.008 426.159 288.008C427.066 288.008 427.727 287.635 428.143 286.888C428.559 286.131 428.767 285 428.767 283.496ZM440.073 289H438.729L438.393 283.24C438.329 282.227 438.297 280.899 438.297 279.256L436.441 287.016H435.049L433.065 279.256C433.086 279.64 433.097 280.152 433.097 280.792C433.097 281.773 433.076 282.589 433.033 283.24L432.745 289H431.433L432.057 277.976H433.993L435.785 285.528L437.497 277.976H439.449L440.073 289Z" fill="black"/>
<rect x="253" y="453" width="171" height="38" fill="#C4C4C4"/>
<path d="M267.554 477.568C267.266 477.76 266.914 477.909 266.498 478.016C266.093 478.123 265.687 478.176 265.282 478.176C264.397 478.176 263.703 477.947 263.202 477.488C262.701 477.019 262.45 476.405 262.45 475.648V470.624H260.514V469.568H262.45V467.664L263.794 467.504V469.568H266.722L266.546 470.624H263.794V475.632C263.794 476.112 263.922 476.469 264.178 476.704C264.434 476.939 264.845 477.056 265.41 477.056C265.986 477.056 266.525 476.923 267.026 476.656L267.554 477.568ZM271.516 474.256C271.548 475.184 271.788 475.883 272.236 476.352C272.694 476.821 273.27 477.056 273.964 477.056C274.38 477.056 274.758 476.997 275.1 476.88C275.452 476.752 275.825 476.56 276.22 476.304L276.844 477.2C276.449 477.509 275.996 477.749 275.484 477.92C274.982 478.091 274.476 478.176 273.964 478.176C272.748 478.176 271.798 477.781 271.116 476.992C270.444 476.192 270.108 475.125 270.108 473.792C270.108 472.949 270.257 472.197 270.556 471.536C270.854 470.864 271.281 470.341 271.836 469.968C272.39 469.584 273.036 469.392 273.772 469.392C274.838 469.392 275.676 469.765 276.284 470.512C276.902 471.248 277.212 472.256 277.212 473.536C277.212 473.781 277.201 474.021 277.18 474.256H271.516ZM273.788 470.496C273.137 470.496 272.609 470.731 272.204 471.2C271.798 471.659 271.569 472.336 271.516 473.232H275.9C275.889 472.347 275.697 471.669 275.324 471.2C274.95 470.731 274.438 470.496 273.788 470.496ZM279.334 478L282.438 473.552L279.702 469.568H281.302L283.254 472.704L285.222 469.568H286.774L284.038 473.488L287.142 478H285.51L283.19 474.384L280.87 478H279.334ZM296.335 477.568C296.047 477.76 295.695 477.909 295.279 478.016C294.874 478.123 294.469 478.176 294.063 478.176C293.178 478.176 292.485 477.947 291.983 477.488C291.482 477.019 291.231 476.405 291.231 475.648V470.624H289.295V469.568H291.231V467.664L292.575 467.504V469.568H295.503L295.327 470.624H292.575V475.632C292.575 476.112 292.703 476.469 292.959 476.704C293.215 476.939 293.626 477.056 294.191 477.056C294.767 477.056 295.306 476.923 295.807 476.656L296.335 477.568ZM301.129 471.104C301.129 470.752 301.252 470.453 301.497 470.208C301.742 469.952 302.046 469.824 302.409 469.824C302.782 469.824 303.092 469.952 303.337 470.208C303.582 470.453 303.705 470.752 303.705 471.104C303.705 471.467 303.582 471.776 303.337 472.032C303.092 472.288 302.782 472.416 302.409 472.416C302.046 472.416 301.742 472.288 301.497 472.032C301.252 471.776 301.129 471.467 301.129 471.104ZM301.129 476.88C301.129 476.528 301.252 476.224 301.497 475.968C301.742 475.712 302.046 475.584 302.409 475.584C302.782 475.584 303.092 475.712 303.337 475.968C303.582 476.213 303.705 476.517 303.705 476.88C303.705 477.253 303.582 477.563 303.337 477.808C303.092 478.053 302.782 478.176 302.409 478.176C302.046 478.176 301.742 478.053 301.497 477.808C301.252 477.563 301.129 477.253 301.129 476.88ZM325.725 470.368C325.725 471.595 325.346 472.491 324.589 473.056C323.831 473.621 322.791 473.904 321.469 473.904H320.045V478H318.669V466.976H321.469C322.823 466.976 323.869 467.259 324.605 467.824C325.351 468.389 325.725 469.237 325.725 470.368ZM324.237 470.384C324.237 469.584 324.002 469.003 323.533 468.64C323.074 468.267 322.445 468.08 321.645 468.08H320.045V472.8H321.597C322.429 472.8 323.074 472.619 323.533 472.256C324.002 471.893 324.237 471.269 324.237 470.384ZM334.054 476.16C334.054 476.491 334.108 476.736 334.214 476.896C334.321 477.045 334.497 477.157 334.742 477.232L334.406 478.192C333.585 478.085 333.073 477.685 332.87 476.992C332.572 477.376 332.193 477.669 331.734 477.872C331.286 478.075 330.785 478.176 330.23 478.176C329.388 478.176 328.721 477.941 328.23 477.472C327.75 477.003 327.51 476.373 327.51 475.584C327.51 474.72 327.846 474.053 328.518 473.584C329.201 473.115 330.177 472.88 331.446 472.88H332.694V472.192C332.694 471.595 332.524 471.168 332.182 470.912C331.841 470.645 331.345 470.512 330.694 470.512C330.054 470.512 329.324 470.656 328.502 470.944L328.134 469.92C329.126 469.568 330.049 469.392 330.902 469.392C331.926 469.392 332.705 469.632 333.238 470.112C333.782 470.592 334.054 471.259 334.054 472.112V476.16ZM330.566 477.168C330.982 477.168 331.377 477.061 331.75 476.848C332.134 476.635 332.449 476.341 332.694 475.968V473.808H331.478C330.582 473.808 329.937 473.957 329.542 474.256C329.148 474.555 328.95 474.992 328.95 475.568C328.95 476.635 329.489 477.168 330.566 477.168ZM343.296 469.392C343.637 469.392 344.032 469.451 344.48 469.568L344.288 472.432H343.2V470.624H343.12C341.819 470.624 340.896 471.552 340.352 473.408V476.96H342.064V478H337.68V476.96H339.008V470.608H337.68V469.568H340.016L340.272 471.568C340.613 470.843 341.019 470.299 341.488 469.936C341.968 469.573 342.571 469.392 343.296 469.392ZM353.242 476.16C353.242 476.491 353.295 476.736 353.402 476.896C353.508 477.045 353.684 477.157 353.93 477.232L353.594 478.192C352.772 478.085 352.26 477.685 352.058 476.992C351.759 477.376 351.38 477.669 350.922 477.872C350.474 478.075 349.972 478.176 349.418 478.176C348.575 478.176 347.908 477.941 347.418 477.472C346.938 477.003 346.698 476.373 346.698 475.584C346.698 474.72 347.034 474.053 347.706 473.584C348.388 473.115 349.364 472.88 350.634 472.88H351.882V472.192C351.882 471.595 351.711 471.168 351.37 470.912C351.028 470.645 350.532 470.512 349.882 470.512C349.242 470.512 348.511 470.656 347.69 470.944L347.322 469.92C348.314 469.568 349.236 469.392 350.09 469.392C351.114 469.392 351.892 469.632 352.426 470.112C352.97 470.592 353.242 471.259 353.242 472.112V476.16ZM349.754 477.168C350.17 477.168 350.564 477.061 350.938 476.848C351.322 476.635 351.636 476.341 351.882 475.968V473.808H350.666C349.77 473.808 349.124 473.957 348.73 474.256C348.335 474.555 348.138 474.992 348.138 475.568C348.138 476.635 348.676 477.168 349.754 477.168ZM364.052 469.952C363.732 470.059 363.385 470.128 363.012 470.16C362.638 470.181 362.164 470.192 361.588 470.192C362.569 470.64 363.06 471.349 363.06 472.32C363.06 473.173 362.777 473.867 362.212 474.4C361.646 474.923 360.873 475.184 359.891 475.184C359.39 475.184 358.969 475.125 358.628 475.008C358.5 475.104 358.393 475.227 358.308 475.376C358.233 475.525 358.196 475.675 358.196 475.824C358.196 476.304 358.569 476.544 359.316 476.544H360.836C361.39 476.544 361.892 476.645 362.34 476.848C362.798 477.04 363.156 477.312 363.411 477.664C363.678 478.016 363.812 478.405 363.812 478.832C363.812 479.653 363.46 480.283 362.756 480.72C362.062 481.168 361.076 481.392 359.796 481.392C358.494 481.392 357.577 481.189 357.044 480.784C356.51 480.379 356.243 479.733 356.243 478.848H357.46C357.46 479.2 357.524 479.477 357.652 479.68C357.79 479.893 358.025 480.048 358.356 480.144C358.697 480.251 359.177 480.304 359.796 480.304C360.702 480.304 361.369 480.187 361.796 479.952C362.233 479.717 362.452 479.371 362.452 478.912C362.452 478.528 362.276 478.229 361.924 478.016C361.572 477.813 361.118 477.712 360.564 477.712H359.06C358.366 477.712 357.838 477.563 357.476 477.264C357.113 476.955 356.932 476.571 356.932 476.112C356.932 475.845 357.012 475.584 357.172 475.328C357.332 475.061 357.561 474.832 357.86 474.64C357.38 474.395 357.022 474.085 356.788 473.712C356.564 473.328 356.452 472.864 356.452 472.32C356.452 471.755 356.59 471.253 356.868 470.816C357.156 470.368 357.55 470.021 358.052 469.776C358.564 469.52 359.15 469.392 359.812 469.392C360.772 469.392 361.502 469.339 362.004 469.232C362.505 469.125 363.054 468.944 363.652 468.688L364.052 469.952ZM359.796 470.384C359.145 470.384 358.654 470.56 358.324 470.912C357.993 471.253 357.828 471.723 357.828 472.32C357.828 472.917 357.993 473.397 358.324 473.76C358.665 474.112 359.166 474.288 359.828 474.288C360.425 474.288 360.878 474.117 361.188 473.776C361.508 473.424 361.668 472.933 361.668 472.304C361.668 471.024 361.044 470.384 359.796 470.384ZM372.077 469.392C372.419 469.392 372.813 469.451 373.261 469.568L373.069 472.432H371.981V470.624H371.901C370.6 470.624 369.677 471.552 369.133 473.408V476.96H370.845V478H366.461V476.96H367.789V470.608H366.461V469.568H368.797L369.053 471.568C369.395 470.843 369.8 470.299 370.269 469.936C370.749 469.573 371.352 469.392 372.077 469.392ZM382.023 476.16C382.023 476.491 382.076 476.736 382.183 476.896C382.29 477.045 382.466 477.157 382.711 477.232L382.375 478.192C381.554 478.085 381.042 477.685 380.839 476.992C380.54 477.376 380.162 477.669 379.703 477.872C379.255 478.075 378.754 478.176 378.199 478.176C377.356 478.176 376.69 477.941 376.199 477.472C375.719 477.003 375.479 476.373 375.479 475.584C375.479 474.72 375.815 474.053 376.487 473.584C377.17 473.115 378.146 472.88 379.415 472.88H380.663V472.192C380.663 471.595 380.492 471.168 380.151 470.912C379.81 470.645 379.314 470.512 378.663 470.512C378.023 470.512 377.292 470.656 376.471 470.944L376.103 469.92C377.095 469.568 378.018 469.392 378.871 469.392C379.895 469.392 380.674 469.632 381.207 470.112C381.751 470.592 382.023 471.259 382.023 472.112V476.16ZM378.535 477.168C378.951 477.168 379.346 477.061 379.719 476.848C380.103 476.635 380.418 476.341 380.663 475.968V473.808H379.447C378.551 473.808 377.906 473.957 377.511 474.256C377.116 474.555 376.919 474.992 376.919 475.568C376.919 476.635 377.458 477.168 378.535 477.168ZM390.545 466.016C391.345 466.016 392.107 466.165 392.833 466.464L392.401 467.472C391.867 467.237 391.265 467.12 390.593 467.12C389.419 467.12 388.833 467.584 388.833 468.512V470.224H391.681L391.537 471.296H388.833V478H387.473V471.296H385.473V470.224H387.473V468.544C387.473 467.787 387.761 467.179 388.337 466.72C388.923 466.251 389.659 466.016 390.545 466.016ZM411.428 476.912V478H405.076V476.912H407.78V468.448L405.268 469.968L404.676 469.024L407.956 466.976H409.14V476.912H411.428Z" fill="black"/>
<rect x="253" y="564" width="171" height="38" fill="#C4C4C4"/>
<path d="M286.742 588.568C286.454 588.76 286.102 588.909 285.686 589.016C285.28 589.123 284.875 589.176 284.47 589.176C283.584 589.176 282.891 588.947 282.39 588.488C281.888 588.019 281.638 587.405 281.638 586.648V581.624H279.702V580.568H281.638V578.664L282.982 578.504V580.568H285.91L285.734 581.624H282.982V586.632C282.982 587.112 283.11 587.469 283.366 587.704C283.622 587.939 284.032 588.056 284.598 588.056C285.174 588.056 285.712 587.923 286.214 587.656L286.742 588.568ZM290.703 585.256C290.735 586.184 290.975 586.883 291.423 587.352C291.882 587.821 292.458 588.056 293.151 588.056C293.567 588.056 293.946 587.997 294.287 587.88C294.639 587.752 295.013 587.56 295.407 587.304L296.031 588.2C295.637 588.509 295.183 588.749 294.671 588.92C294.17 589.091 293.663 589.176 293.151 589.176C291.935 589.176 290.986 588.781 290.303 587.992C289.631 587.192 289.295 586.125 289.295 584.792C289.295 583.949 289.445 583.197 289.743 582.536C290.042 581.864 290.469 581.341 291.023 580.968C291.578 580.584 292.223 580.392 292.959 580.392C294.026 580.392 294.863 580.765 295.471 581.512C296.09 582.248 296.399 583.256 296.399 584.536C296.399 584.781 296.389 585.021 296.367 585.256H290.703ZM292.975 581.496C292.325 581.496 291.797 581.731 291.391 582.2C290.986 582.659 290.757 583.336 290.703 584.232H295.087C295.077 583.347 294.885 582.669 294.511 582.2C294.138 581.731 293.626 581.496 292.975 581.496ZM298.521 589L301.625 584.552L298.889 580.568H300.489L302.441 583.704L304.409 580.568H305.961L303.225 584.488L306.329 589H304.697L302.377 585.384L300.057 589H298.521ZM315.523 588.568C315.235 588.76 314.883 588.909 314.467 589.016C314.061 589.123 313.656 589.176 313.251 589.176C312.365 589.176 311.672 588.947 311.171 588.488C310.669 588.019 310.419 587.405 310.419 586.648V581.624H308.483V580.568H310.419V578.664L311.763 578.504V580.568H314.691L314.515 581.624H311.763V586.632C311.763 587.112 311.891 587.469 312.147 587.704C312.403 587.939 312.813 588.056 313.379 588.056C313.955 588.056 314.493 587.923 314.995 587.656L315.523 588.568ZM320.317 582.104C320.317 581.752 320.439 581.453 320.685 581.208C320.93 580.952 321.234 580.824 321.597 580.824C321.97 580.824 322.279 580.952 322.525 581.208C322.77 581.453 322.893 581.752 322.893 582.104C322.893 582.467 322.77 582.776 322.525 583.032C322.279 583.288 321.97 583.416 321.597 583.416C321.234 583.416 320.93 583.288 320.685 583.032C320.439 582.776 320.317 582.467 320.317 582.104ZM320.317 587.88C320.317 587.528 320.439 587.224 320.685 586.968C320.93 586.712 321.234 586.584 321.597 586.584C321.97 586.584 322.279 586.712 322.525 586.968C322.77 587.213 322.893 587.517 322.893 587.88C322.893 588.253 322.77 588.563 322.525 588.808C322.279 589.053 321.97 589.176 321.597 589.176C321.234 589.176 320.93 589.053 320.685 588.808C320.439 588.563 320.317 588.253 320.317 587.88ZM341.024 589.176C339.68 589.176 338.624 588.696 337.856 587.736C337.099 586.765 336.72 585.347 336.72 583.48C336.72 582.264 336.933 581.229 337.36 580.376C337.787 579.523 338.352 578.883 339.056 578.456C339.76 578.019 340.523 577.8 341.344 577.8C342.037 577.8 342.619 577.896 343.088 578.088C343.557 578.28 344.021 578.589 344.48 579.016L343.648 579.88C343.307 579.571 342.949 579.341 342.576 579.192C342.213 579.043 341.803 578.968 341.344 578.968C340.448 578.968 339.701 579.325 339.104 580.04C338.507 580.755 338.208 581.901 338.208 583.48C338.208 585.048 338.448 586.195 338.928 586.92C339.419 587.645 340.155 588.008 341.136 588.008C341.915 588.008 342.613 587.832 343.232 587.48V584.136H341.072L340.912 582.968H344.624V588.216C344.069 588.525 343.509 588.765 342.944 588.936C342.389 589.096 341.749 589.176 341.024 589.176ZM350.41 580.392C351.572 580.392 352.463 580.787 353.082 581.576C353.711 582.355 354.026 583.421 354.026 584.776C354.026 586.099 353.706 587.165 353.066 587.976C352.436 588.776 351.546 589.176 350.394 589.176C349.231 589.176 348.335 588.787 347.706 588.008C347.076 587.219 346.762 586.147 346.762 584.792C346.762 583.459 347.076 582.392 347.706 581.592C348.346 580.792 349.247 580.392 350.41 580.392ZM350.41 581.496C349.674 581.496 349.124 581.768 348.762 582.312C348.399 582.856 348.218 583.683 348.218 584.792C348.218 585.901 348.394 586.728 348.746 587.272C349.108 587.805 349.658 588.072 350.394 588.072C351.13 588.072 351.674 587.805 352.026 587.272C352.388 586.728 352.57 585.896 352.57 584.776C352.57 583.667 352.388 582.845 352.026 582.312C351.674 581.768 351.135 581.496 350.41 581.496ZM360.004 580.392C361.166 580.392 362.057 580.787 362.676 581.576C363.305 582.355 363.62 583.421 363.62 584.776C363.62 586.099 363.3 587.165 362.66 587.976C362.03 588.776 361.14 589.176 359.988 589.176C358.825 589.176 357.929 588.787 357.299 588.008C356.67 587.219 356.356 586.147 356.356 584.792C356.356 583.459 356.67 582.392 357.299 581.592C357.94 580.792 358.841 580.392 360.004 580.392ZM360.004 581.496C359.268 581.496 358.718 581.768 358.356 582.312C357.993 582.856 357.812 583.683 357.812 584.792C357.812 585.901 357.988 586.728 358.34 587.272C358.702 587.805 359.252 588.072 359.988 588.072C360.724 588.072 361.268 587.805 361.62 587.272C361.982 586.728 362.164 585.896 362.164 584.776C362.164 583.667 361.982 582.845 361.62 582.312C361.268 581.768 360.729 581.496 360.004 581.496ZM373.645 580.952C373.325 581.059 372.979 581.128 372.605 581.16C372.232 581.181 371.757 581.192 371.181 581.192C372.163 581.64 372.653 582.349 372.653 583.32C372.653 584.173 372.371 584.867 371.805 585.4C371.24 585.923 370.467 586.184 369.485 586.184C368.984 586.184 368.563 586.125 368.221 586.008C368.093 586.104 367.987 586.227 367.901 586.376C367.827 586.525 367.789 586.675 367.789 586.824C367.789 587.304 368.163 587.544 368.909 587.544H370.429C370.984 587.544 371.485 587.645 371.933 587.848C372.392 588.04 372.749 588.312 373.005 588.664C373.272 589.016 373.405 589.405 373.405 589.832C373.405 590.653 373.053 591.283 372.349 591.72C371.656 592.168 370.669 592.392 369.389 592.392C368.088 592.392 367.171 592.189 366.637 591.784C366.104 591.379 365.837 590.733 365.837 589.848H367.053C367.053 590.2 367.117 590.477 367.245 590.68C367.384 590.893 367.619 591.048 367.949 591.144C368.291 591.251 368.771 591.304 369.389 591.304C370.296 591.304 370.963 591.187 371.389 590.952C371.827 590.717 372.045 590.371 372.045 589.912C372.045 589.528 371.869 589.229 371.517 589.016C371.165 588.813 370.712 588.712 370.157 588.712H368.653C367.96 588.712 367.432 588.563 367.069 588.264C366.707 587.955 366.525 587.571 366.525 587.112C366.525 586.845 366.605 586.584 366.765 586.328C366.925 586.061 367.155 585.832 367.453 585.64C366.973 585.395 366.616 585.085 366.381 584.712C366.157 584.328 366.045 583.864 366.045 583.32C366.045 582.755 366.184 582.253 366.461 581.816C366.749 581.368 367.144 581.021 367.645 580.776C368.157 580.52 368.744 580.392 369.405 580.392C370.365 580.392 371.096 580.339 371.597 580.232C372.099 580.125 372.648 579.944 373.245 579.688L373.645 580.952ZM369.389 581.384C368.739 581.384 368.248 581.56 367.917 581.912C367.587 582.253 367.421 582.723 367.421 583.32C367.421 583.917 367.587 584.397 367.917 584.76C368.259 585.112 368.76 585.288 369.421 585.288C370.019 585.288 370.472 585.117 370.781 584.776C371.101 584.424 371.261 583.933 371.261 583.304C371.261 582.024 370.637 581.384 369.389 581.384ZM379.271 586.92C379.271 587.677 379.735 588.056 380.663 588.056C381.1 588.056 381.57 587.96 382.071 587.768L382.423 588.744C381.89 589.032 381.223 589.176 380.423 589.176C379.666 589.176 379.058 588.968 378.599 588.552C378.151 588.136 377.927 587.571 377.927 586.856V578.248H375.335V577.176H379.271V586.92ZM386.641 585.256C386.673 586.184 386.913 586.883 387.361 587.352C387.819 587.821 388.395 588.056 389.089 588.056C389.505 588.056 389.883 587.997 390.225 587.88C390.577 587.752 390.95 587.56 391.345 587.304L391.969 588.2C391.574 588.509 391.121 588.749 390.609 588.92C390.107 589.091 389.601 589.176 389.089 589.176C387.873 589.176 386.923 588.781 386.241 587.992C385.569 587.192 385.233 586.125 385.233 584.792C385.233 583.949 385.382 583.197 385.681 582.536C385.979 581.864 386.406 581.341 386.961 580.968C387.515 580.584 388.161 580.392 388.897 580.392C389.963 580.392 390.801 580.765 391.409 581.512C392.027 582.248 392.337 583.256 392.337 584.536C392.337 584.781 392.326 585.021 392.305 585.256H386.641ZM388.913 581.496C388.262 581.496 387.734 581.731 387.329 582.2C386.923 582.659 386.694 583.336 386.641 584.232H391.025C391.014 583.347 390.822 582.669 390.449 582.2C390.075 581.731 389.563 581.496 388.913 581.496Z" fill="black"/>
<rect x="253" y="642" width="283" height="39" fill="#C4C4C4"/>
<path d="M262.132 659.736C262.462 659.309 262.868 658.979 263.348 658.744C263.828 658.509 264.324 658.392 264.836 658.392C266.414 658.392 267.204 659.224 267.204 660.888V667H265.86V660.904C265.86 660.403 265.742 660.04 265.508 659.816C265.273 659.581 264.9 659.464 264.388 659.464C263.95 659.464 263.529 659.603 263.124 659.88C262.718 660.157 262.388 660.483 262.132 660.856V667H260.788V655.192L262.132 655.048V659.736ZM276.077 658.392C276.419 658.392 276.813 658.451 277.261 658.568L277.069 661.432H275.981V659.624H275.901C274.6 659.624 273.677 660.552 273.133 662.408V665.96H274.845V667H270.461V665.96H271.789V659.608H270.461V658.568H272.797L273.053 660.568C273.395 659.843 273.8 659.299 274.269 658.936C274.749 658.573 275.352 658.392 276.077 658.392ZM281.047 663.256C281.079 664.184 281.319 664.883 281.767 665.352C282.226 665.821 282.802 666.056 283.495 666.056C283.911 666.056 284.29 665.997 284.631 665.88C284.983 665.752 285.356 665.56 285.751 665.304L286.375 666.2C285.98 666.509 285.527 666.749 285.015 666.92C284.514 667.091 284.007 667.176 283.495 667.176C282.279 667.176 281.33 666.781 280.647 665.992C279.975 665.192 279.639 664.125 279.639 662.792C279.639 661.949 279.788 661.197 280.087 660.536C280.386 659.864 280.812 659.341 281.367 658.968C281.922 658.584 282.567 658.392 283.303 658.392C284.37 658.392 285.207 658.765 285.815 659.512C286.434 660.248 286.743 661.256 286.743 662.536C286.743 662.781 286.732 663.021 286.711 663.256H281.047ZM283.319 659.496C282.668 659.496 282.14 659.731 281.735 660.2C281.33 660.659 281.1 661.336 281.047 662.232H285.431C285.42 661.347 285.228 660.669 284.855 660.2C284.482 659.731 283.97 659.496 283.319 659.496ZM294.545 655.016C295.345 655.016 296.107 655.165 296.833 655.464L296.401 656.472C295.867 656.237 295.265 656.12 294.593 656.12C293.419 656.12 292.833 656.584 292.833 657.512V659.224H295.681L295.537 660.296H292.833V667H291.473V660.296H289.473V659.224H291.473V657.544C291.473 656.787 291.761 656.179 292.337 655.72C292.923 655.251 293.659 655.016 294.545 655.016ZM301.067 660.104C301.067 659.752 301.189 659.453 301.435 659.208C301.68 658.952 301.984 658.824 302.347 658.824C302.72 658.824 303.029 658.952 303.275 659.208C303.52 659.453 303.643 659.752 303.643 660.104C303.643 660.467 303.52 660.776 303.275 661.032C303.029 661.288 302.72 661.416 302.347 661.416C301.984 661.416 301.68 661.288 301.435 661.032C301.189 660.776 301.067 660.467 301.067 660.104ZM301.067 665.88C301.067 665.528 301.189 665.224 301.435 664.968C301.68 664.712 301.984 664.584 302.347 664.584C302.72 664.584 303.029 664.712 303.275 664.968C303.52 665.213 303.643 665.517 303.643 665.88C303.643 666.253 303.52 666.563 303.275 666.808C303.029 667.053 302.72 667.176 302.347 667.176C301.984 667.176 301.68 667.053 301.435 666.808C301.189 666.563 301.067 666.253 301.067 665.88ZM319.694 659.736C320.025 659.309 320.43 658.979 320.91 658.744C321.39 658.509 321.886 658.392 322.398 658.392C323.977 658.392 324.766 659.224 324.766 660.888V667H323.422V660.904C323.422 660.403 323.305 660.04 323.07 659.816C322.835 659.581 322.462 659.464 321.95 659.464C321.513 659.464 321.091 659.603 320.686 659.88C320.281 660.157 319.95 660.483 319.694 660.856V667H318.35V655.192L319.694 655.048V659.736ZM334.648 666.568C334.36 666.76 334.008 666.909 333.592 667.016C333.186 667.123 332.781 667.176 332.376 667.176C331.49 667.176 330.797 666.947 330.296 666.488C329.794 666.019 329.544 665.405 329.544 664.648V659.624H327.608V658.568H329.544V656.664L330.888 656.504V658.568H333.816L333.64 659.624H330.888V664.632C330.888 665.112 331.016 665.469 331.272 665.704C331.528 665.939 331.938 666.056 332.504 666.056C333.08 666.056 333.618 665.923 334.12 665.656L334.648 666.568ZM344.242 666.568C343.954 666.76 343.602 666.909 343.186 667.016C342.78 667.123 342.375 667.176 341.97 667.176C341.084 667.176 340.391 666.947 339.89 666.488C339.388 666.019 339.138 665.405 339.138 664.648V659.624H337.202V658.568H339.138V656.664L340.482 656.504V658.568H343.41L343.234 659.624H340.482V664.632C340.482 665.112 340.61 665.469 340.866 665.704C341.122 665.939 341.532 666.056 342.098 666.056C342.674 666.056 343.212 665.923 343.714 665.656L344.242 666.568ZM350.907 658.392C352.945 658.392 353.963 659.853 353.963 662.776C353.963 664.109 353.686 665.176 353.131 665.976C352.577 666.776 351.771 667.176 350.715 667.176C349.798 667.176 349.051 666.856 348.475 666.216V670.232L347.131 670.392V658.568H348.283L348.395 659.752C348.705 659.315 349.073 658.979 349.499 658.744C349.937 658.509 350.406 658.392 350.907 658.392ZM350.587 659.48C350.161 659.48 349.766 659.608 349.403 659.864C349.051 660.12 348.742 660.44 348.475 660.824V665C348.699 665.331 348.977 665.592 349.307 665.784C349.649 665.965 350.017 666.056 350.411 666.056C351.115 666.056 351.638 665.789 351.979 665.256C352.331 664.712 352.507 663.885 352.507 662.776C352.507 661.667 352.353 660.84 352.043 660.296C351.734 659.752 351.249 659.48 350.587 659.48ZM359.605 666.072C360.245 666.072 360.752 665.949 361.125 665.704C361.498 665.459 361.685 665.133 361.685 664.728C361.685 664.451 361.637 664.227 361.541 664.056C361.445 663.875 361.253 663.715 360.965 663.576C360.677 663.427 360.24 663.277 359.653 663.128C358.672 662.883 357.946 662.589 357.477 662.248C357.008 661.896 356.773 661.379 356.773 660.696C356.773 659.992 357.066 659.432 357.653 659.016C358.24 658.6 359.013 658.392 359.973 658.392C361.146 658.392 362.17 658.701 363.045 659.32L362.437 660.248C362.085 660.003 361.717 659.816 361.333 659.688C360.949 659.549 360.506 659.48 360.005 659.48C358.789 659.48 358.181 659.848 358.181 660.584C358.181 660.84 358.245 661.048 358.373 661.208C358.512 661.368 358.73 661.512 359.029 661.64C359.338 661.757 359.797 661.901 360.405 662.072C361.322 662.317 362.005 662.632 362.453 663.016C362.912 663.389 363.141 663.939 363.141 664.664C363.141 665.507 362.8 666.136 362.117 666.552C361.434 666.968 360.597 667.176 359.605 667.176C358.282 667.176 357.184 666.797 356.309 666.04L357.061 665.16C357.402 665.437 357.792 665.661 358.229 665.832C358.666 665.992 359.125 666.072 359.605 666.072ZM368.223 660.104C368.223 659.752 368.345 659.453 368.591 659.208C368.836 658.952 369.14 658.824 369.503 658.824C369.876 658.824 370.185 658.952 370.431 659.208C370.676 659.453 370.799 659.752 370.799 660.104C370.799 660.467 370.676 660.776 370.431 661.032C370.185 661.288 369.876 661.416 369.503 661.416C369.14 661.416 368.836 661.288 368.591 661.032C368.345 660.776 368.223 660.467 368.223 660.104ZM368.223 665.88C368.223 665.528 368.345 665.224 368.591 664.968C368.836 664.712 369.14 664.584 369.503 664.584C369.876 664.584 370.185 664.712 370.431 664.968C370.676 665.213 370.799 665.517 370.799 665.88C370.799 666.253 370.676 666.563 370.431 666.808C370.185 667.053 369.876 667.176 369.503 667.176C369.14 667.176 368.836 667.053 368.591 666.808C368.345 666.563 368.223 666.253 368.223 665.88ZM375.161 668.168L381.993 654.056L383.065 654.568L376.249 668.648L375.161 668.168ZM384.754 668.168L391.586 654.056L392.658 654.568L385.842 668.648L384.754 668.168ZM399.452 667L398.348 660.824L397.164 667H395.308L393.788 658.568H395.148L396.236 666.168L397.58 659.64H399.164L400.428 666.168L401.516 658.568H402.812L401.356 667H399.452ZM409.046 667L407.942 660.824L406.758 667H404.902L403.382 658.568H404.742L405.83 666.168L407.174 659.64H408.758L410.022 666.168L411.11 658.568H412.406L410.95 667H409.046ZM418.64 667L417.536 660.824L416.352 667H414.496L412.976 658.568H414.336L415.424 666.168L416.768 659.64H418.352L419.616 666.168L420.704 658.568H422L420.544 667H418.64ZM425.657 665.768C425.657 665.373 425.791 665.043 426.057 664.776C426.335 664.499 426.671 664.36 427.065 664.36C427.471 664.36 427.807 664.499 428.073 664.776C428.34 665.043 428.473 665.373 428.473 665.768C428.473 666.173 428.34 666.509 428.073 666.776C427.807 667.043 427.471 667.176 427.065 667.176C426.671 667.176 426.335 667.043 426.057 666.776C425.791 666.499 425.657 666.163 425.657 665.768ZM440.739 658.952C440.419 659.059 440.072 659.128 439.699 659.16C439.326 659.181 438.851 659.192 438.275 659.192C439.256 659.64 439.747 660.349 439.747 661.32C439.747 662.173 439.464 662.867 438.899 663.4C438.334 663.923 437.56 664.184 436.579 664.184C436.078 664.184 435.656 664.125 435.315 664.008C435.187 664.104 435.08 664.227 434.995 664.376C434.92 664.525 434.883 664.675 434.883 664.824C434.883 665.304 435.256 665.544 436.003 665.544H437.523C438.078 665.544 438.579 665.645 439.027 665.848C439.486 666.04 439.843 666.312 440.099 666.664C440.366 667.016 440.499 667.405 440.499 667.832C440.499 668.653 440.147 669.283 439.443 669.72C438.75 670.168 437.763 670.392 436.483 670.392C435.182 670.392 434.264 670.189 433.731 669.784C433.198 669.379 432.931 668.733 432.931 667.848H434.147C434.147 668.2 434.211 668.477 434.339 668.68C434.478 668.893 434.712 669.048 435.043 669.144C435.384 669.251 435.864 669.304 436.483 669.304C437.39 669.304 438.056 669.187 438.483 668.952C438.92 668.717 439.139 668.371 439.139 667.912C439.139 667.528 438.963 667.229 438.611 667.016C438.259 666.813 437.806 666.712 437.251 666.712H435.747C435.054 666.712 434.526 666.563 434.163 666.264C433.8 665.955 433.619 665.571 433.619 665.112C433.619 664.845 433.699 664.584 433.859 664.328C434.019 664.061 434.248 663.832 434.547 663.64C434.067 663.395 433.71 663.085 433.475 662.712C433.251 662.328 433.139 661.864 433.139 661.32C433.139 660.755 433.278 660.253 433.555 659.816C433.843 659.368 434.238 659.021 434.739 658.776C435.251 658.52 435.838 658.392 436.499 658.392C437.459 658.392 438.19 658.339 438.691 658.232C439.192 658.125 439.742 657.944 440.339 657.688L440.739 658.952ZM436.483 659.384C435.832 659.384 435.342 659.56 435.011 659.912C434.68 660.253 434.515 660.723 434.515 661.32C434.515 661.917 434.68 662.397 435.011 662.76C435.352 663.112 435.854 663.288 436.515 663.288C437.112 663.288 437.566 663.117 437.875 662.776C438.195 662.424 438.355 661.933 438.355 661.304C438.355 660.024 437.731 659.384 436.483 659.384ZM446.285 658.392C447.447 658.392 448.338 658.787 448.957 659.576C449.586 660.355 449.901 661.421 449.901 662.776C449.901 664.099 449.581 665.165 448.941 665.976C448.311 666.776 447.421 667.176 446.269 667.176C445.106 667.176 444.21 666.787 443.581 666.008C442.951 665.219 442.637 664.147 442.637 662.792C442.637 661.459 442.951 660.392 443.581 659.592C444.221 658.792 445.122 658.392 446.285 658.392ZM446.285 659.496C445.549 659.496 444.999 659.768 444.637 660.312C444.274 660.856 444.093 661.683 444.093 662.792C444.093 663.901 444.269 664.728 444.621 665.272C444.983 665.805 445.533 666.072 446.269 666.072C447.005 666.072 447.549 665.805 447.901 665.272C448.263 664.728 448.445 663.896 448.445 662.776C448.445 661.667 448.263 660.845 447.901 660.312C447.549 659.768 447.01 659.496 446.285 659.496ZM455.879 658.392C457.041 658.392 457.932 658.787 458.551 659.576C459.18 660.355 459.495 661.421 459.495 662.776C459.495 664.099 459.175 665.165 458.535 665.976C457.905 666.776 457.015 667.176 455.863 667.176C454.7 667.176 453.804 666.787 453.174 666.008C452.545 665.219 452.231 664.147 452.231 662.792C452.231 661.459 452.545 660.392 453.174 659.592C453.815 658.792 454.716 658.392 455.879 658.392ZM455.879 659.496C455.143 659.496 454.593 659.768 454.231 660.312C453.868 660.856 453.687 661.683 453.687 662.792C453.687 663.901 453.863 664.728 454.215 665.272C454.577 665.805 455.127 666.072 455.863 666.072C456.599 666.072 457.143 665.805 457.495 665.272C457.857 664.728 458.039 663.896 458.039 662.776C458.039 661.667 457.857 660.845 457.495 660.312C457.143 659.768 456.604 659.496 455.879 659.496ZM469.52 658.952C469.2 659.059 468.854 659.128 468.48 659.16C468.107 659.181 467.632 659.192 467.056 659.192C468.038 659.64 468.528 660.349 468.528 661.32C468.528 662.173 468.246 662.867 467.68 663.4C467.115 663.923 466.342 664.184 465.36 664.184C464.859 664.184 464.438 664.125 464.096 664.008C463.968 664.104 463.862 664.227 463.776 664.376C463.702 664.525 463.664 664.675 463.664 664.824C463.664 665.304 464.038 665.544 464.784 665.544H466.304C466.859 665.544 467.36 665.645 467.808 665.848C468.267 666.04 468.624 666.312 468.88 666.664C469.147 667.016 469.28 667.405 469.28 667.832C469.28 668.653 468.928 669.283 468.224 669.72C467.531 670.168 466.544 670.392 465.264 670.392C463.963 670.392 463.046 670.189 462.512 669.784C461.979 669.379 461.712 668.733 461.712 667.848H462.928C462.928 668.2 462.992 668.477 463.12 668.68C463.259 668.893 463.494 669.048 463.824 669.144C464.166 669.251 464.646 669.304 465.264 669.304C466.171 669.304 466.838 669.187 467.264 668.952C467.702 668.717 467.92 668.371 467.92 667.912C467.92 667.528 467.744 667.229 467.392 667.016C467.04 666.813 466.587 666.712 466.032 666.712H464.528C463.835 666.712 463.307 666.563 462.944 666.264C462.582 665.955 462.4 665.571 462.4 665.112C462.4 664.845 462.48 664.584 462.64 664.328C462.8 664.061 463.03 663.832 463.328 663.64C462.848 663.395 462.491 663.085 462.256 662.712C462.032 662.328 461.92 661.864 461.92 661.32C461.92 660.755 462.059 660.253 462.336 659.816C462.624 659.368 463.019 659.021 463.52 658.776C464.032 658.52 464.619 658.392 465.28 658.392C466.24 658.392 466.971 658.339 467.472 658.232C467.974 658.125 468.523 657.944 469.12 657.688L469.52 658.952ZM465.264 659.384C464.614 659.384 464.123 659.56 463.792 659.912C463.462 660.253 463.296 660.723 463.296 661.32C463.296 661.917 463.462 662.397 463.792 662.76C464.134 663.112 464.635 663.288 465.296 663.288C465.894 663.288 466.347 663.117 466.656 662.776C466.976 662.424 467.136 661.933 467.136 661.304C467.136 660.024 466.512 659.384 465.264 659.384ZM475.146 664.92C475.146 665.677 475.61 666.056 476.538 666.056C476.975 666.056 477.445 665.96 477.946 665.768L478.298 666.744C477.765 667.032 477.098 667.176 476.298 667.176C475.541 667.176 474.933 666.968 474.474 666.552C474.026 666.136 473.802 665.571 473.802 664.856V656.248H471.21V655.176H475.146V664.92ZM482.516 663.256C482.548 664.184 482.788 664.883 483.236 665.352C483.694 665.821 484.27 666.056 484.964 666.056C485.38 666.056 485.758 665.997 486.1 665.88C486.452 665.752 486.825 665.56 487.22 665.304L487.844 666.2C487.449 666.509 486.996 666.749 486.484 666.92C485.982 667.091 485.476 667.176 484.964 667.176C483.748 667.176 482.798 666.781 482.116 665.992C481.444 665.192 481.108 664.125 481.108 662.792C481.108 661.949 481.257 661.197 481.556 660.536C481.854 659.864 482.281 659.341 482.836 658.968C483.39 658.584 484.036 658.392 484.772 658.392C485.838 658.392 486.676 658.765 487.284 659.512C487.902 660.248 488.212 661.256 488.212 662.536C488.212 662.781 488.201 663.021 488.18 663.256H482.516ZM484.788 659.496C484.137 659.496 483.609 659.731 483.204 660.2C482.798 660.659 482.569 661.336 482.516 662.232H486.9C486.889 661.347 486.697 660.669 486.324 660.2C485.95 659.731 485.438 659.496 484.788 659.496ZM492.814 665.768C492.814 665.373 492.947 665.043 493.214 664.776C493.491 664.499 493.827 664.36 494.222 664.36C494.627 664.36 494.963 664.499 495.23 664.776C495.496 665.043 495.63 665.373 495.63 665.768C495.63 666.173 495.496 666.509 495.23 666.776C494.963 667.043 494.627 667.176 494.222 667.176C493.827 667.176 493.491 667.043 493.214 666.776C492.947 666.499 492.814 666.163 492.814 665.768ZM504.455 666.024C505.191 666.024 505.922 665.779 506.647 665.288L507.287 666.168C506.935 666.477 506.498 666.723 505.975 666.904C505.453 667.085 504.946 667.176 504.455 667.176C503.207 667.176 502.231 666.787 501.527 666.008C500.834 665.219 500.487 664.157 500.487 662.824C500.487 661.981 500.642 661.224 500.951 660.552C501.271 659.88 501.73 659.352 502.327 658.968C502.925 658.584 503.634 658.392 504.455 658.392C505.543 658.392 506.482 658.723 507.271 659.384L506.615 660.264C505.879 659.773 505.154 659.528 504.439 659.528C503.682 659.528 503.074 659.811 502.615 660.376C502.167 660.931 501.943 661.747 501.943 662.824C501.943 663.901 502.167 664.707 502.615 665.24C503.074 665.763 503.687 666.024 504.455 666.024ZM513.441 658.392C514.604 658.392 515.494 658.787 516.113 659.576C516.742 660.355 517.057 661.421 517.057 662.776C517.057 664.099 516.737 665.165 516.097 665.976C515.468 666.776 514.577 667.176 513.425 667.176C512.262 667.176 511.366 666.787 510.737 666.008C510.108 665.219 509.793 664.147 509.793 662.792C509.793 661.459 510.108 660.392 510.737 659.592C511.377 658.792 512.278 658.392 513.441 658.392ZM513.441 659.496C512.705 659.496 512.156 659.768 511.793 660.312C511.43 660.856 511.249 661.683 511.249 662.792C511.249 663.901 511.425 664.728 511.777 665.272C512.14 665.805 512.689 666.072 513.425 666.072C514.161 666.072 514.705 665.805 515.057 665.272C515.42 664.728 515.601 663.896 515.601 662.776C515.601 661.667 515.42 660.845 515.057 660.312C514.705 659.768 514.166 659.496 513.441 659.496ZM525.371 658.392C525.851 658.392 526.24 658.563 526.539 658.904C526.848 659.235 527.003 659.843 527.003 660.728V667H525.771V660.952C525.771 660.365 525.733 659.971 525.659 659.768C525.584 659.555 525.403 659.448 525.115 659.448C524.571 659.448 524.08 659.784 523.643 660.456V667H522.395V660.952C522.395 660.365 522.357 659.971 522.283 659.768C522.208 659.555 522.027 659.448 521.739 659.448C521.195 659.448 520.704 659.784 520.267 660.456V667H519.035V658.568H520.075L520.171 659.56C520.427 659.187 520.693 658.899 520.971 658.696C521.259 658.493 521.6 658.392 521.995 658.392C522.784 658.392 523.291 658.765 523.515 659.512C523.771 659.149 524.043 658.872 524.331 658.68C524.619 658.488 524.965 658.392 525.371 658.392Z" fill="black"/>
<line x1="113.5" y1="116" x2="113.5" y2="161" stroke="black"/>
<path d="M140.354 161.354C140.549 161.158 140.549 160.842 140.354 160.646L137.172 157.464C136.976 157.269 136.66 157.269 136.464 157.464C136.269 157.66 136.269 157.976 136.464 158.172L139.293 161L136.464 163.828C136.269 164.024 136.269 164.34 136.464 164.536C136.66 164.731 136.976 164.731 137.172 164.536L140.354 161.354ZM113 161.5H140V160.5H113V161.5Z" fill="black"/>
<line x1="176.5" y1="178" x2="176.5" y2="223" stroke="black"/>
<path d="M203.354 223.354C203.549 223.158 203.549 222.842 203.354 222.646L200.172 219.464C199.976 219.269 199.66 219.269 199.464 219.464C199.269 219.66 199.269 219.976 199.464 220.172L202.293 223L199.464 225.828C199.269 226.024 199.269 226.34 199.464 226.536C199.66 226.731 199.976 226.731 200.172 226.536L203.354 223.354ZM176 223.5H203V222.5H176V223.5Z" fill="black"/>
<line x1="176.5" y1="357" x2="176.5" y2="405" stroke="black"/>
<path d="M203.354 405.354C203.549 405.158 203.549 404.842 203.354 404.646L200.172 401.464C199.976 401.269 199.66 401.269 199.464 401.464C199.269 401.66 199.269 401.976 199.464 402.172L202.293 405L199.464 407.828C199.269 408.024 199.269 408.34 199.464 408.536C199.66 408.731 199.976 408.731 200.172 408.536L203.354 405.354ZM176 405.5H203V404.5H176V405.5Z" fill="black"/>
<line x1="176.5" y1="405" x2="176.5" y2="525" stroke="black"/>
<path d="M203.354 524.354C203.549 524.158 203.549 523.842 203.354 523.646L200.172 520.464C199.976 520.269 199.66 520.269 199.464 520.464C199.269 520.66 199.269 520.976 199.464 521.172L202.293 524L199.464 526.828C199.269 527.024 199.269 527.34 199.464 527.536C199.66 527.731 199.976 527.731 200.172 527.536L203.354 524.354ZM176 524.5H203V523.5H176V524.5Z" fill="black"/>
<line x1="226.5" y1="542" x2="226.5" y2="662" stroke="black"/>
<path d="M253.354 661.354C253.549 661.158 253.549 660.842 253.354 660.646L250.172 657.464C249.976 657.269 249.66 657.269 249.464 657.464C249.269 657.66 249.269 657.976 249.464 658.172L252.293 661L249.464 663.828C249.269 664.024 249.269 664.34 249.464 664.536C249.66 664.731 249.976 664.731 250.172 664.536L253.354 661.354ZM226 661.5H253V660.5H226V661.5Z" fill="black"/>
<path d="M253.354 583.354C253.549 583.158 253.549 582.842 253.354 582.646L250.172 579.464C249.976 579.269 249.66 579.269 249.464 579.464C249.269 579.66 249.269 579.976 249.464 580.172L252.293 583L249.464 585.828C249.269 586.024 249.269 586.34 249.464 586.536C249.66 586.731 249.976 586.731 250.172 586.536L253.354 583.354ZM226 583.5H253V582.5H226V583.5Z" fill="black"/>
<line x1="226.5" y1="424" x2="226.5" y2="472" stroke="black"/>
<path d="M253.354 472.354C253.549 472.158 253.549 471.842 253.354 471.646L250.172 468.464C249.976 468.269 249.66 468.269 249.464 468.464C249.269 468.66 249.269 468.976 249.464 469.172L252.293 472L249.464 474.828C249.269 475.024 249.269 475.34 249.464 475.536C249.66 475.731 249.976 475.731 250.172 475.536L253.354 472.354ZM226 472.5H253V471.5H226V472.5Z" fill="black"/>
<line x1="239.5" y1="238" x2="239.5" y2="283" stroke="black"/>
<path d="M266.354 283.354C266.549 283.158 266.549 282.842 266.354 282.646L263.172 279.464C262.976 279.269 262.66 279.269 262.464 279.464C262.269 279.66 262.269 279.976 262.464 280.172L265.293 283L262.464 285.828C262.269 286.024 262.269 286.34 262.464 286.536C262.66 286.731 262.976 286.731 263.172 286.536L266.354 283.354ZM239 283.5H266V282.5H239V283.5Z" fill="black"/>
<line x1="113.5" y1="161" x2="113.5" y2="338" stroke="black"/>
<path d="M140.354 338.354C140.549 338.158 140.549 337.842 140.354 337.646L137.172 334.464C136.976 334.269 136.66 334.269 136.464 334.464C136.269 334.66 136.269 334.976 136.464 335.172L139.293 338L136.464 340.828C136.269 341.024 136.269 341.34 136.464 341.536C136.66 341.731 136.976 341.731 137.172 341.536L140.354 338.354ZM113 338.5H140V337.5H113V338.5Z" fill="black"/>
<line x1="45.5" y1="50" x2="45.5" y2="98" stroke="black"/>
<path d="M72.3536 97.3536C72.5488 97.1583 72.5488 96.8417 72.3536 96.6464L69.1716 93.4645C68.9763 93.2692 68.6597 93.2692 68.4645 93.4645C68.2692 93.6597 68.2692 93.9763 68.4645 94.1716L71.2929 97L68.4645 99.8284C68.2692 100.024 68.2692 100.34 68.4645 100.536C68.6597 100.731 68.9763 100.731 69.1716 100.536L72.3536 97.3536ZM45 97.5H72V96.5H45V97.5Z" fill="black"/>
</svg>
